<svg xmlns="http://www.w3.org/2000/svg" version="1.1" xmlns:xlink="http://www.w3.org/1999/xlink" xmlns:svgjs="http://svgjs.dev/svgjs" width="1000" height="1000" viewBox="0 0 1000 1000"><rect width="1000" height="1000" fill="#ea3c12"></rect><g transform="matrix(0.7,0,0,0.7,149.57575757575756,325.41943254010357)"><svg viewBox="0 0 396 198" data-background-color="#ea3c12" preserveAspectRatio="xMidYMid meet" height="499" width="1000" xmlns="http://www.w3.org/2000/svg" xmlns:xlink="http://www.w3.org/1999/xlink"><g id="tight-bounds" transform="matrix(1,0,0,1,0.2400000000000091,-0.03935769522044552)"><svg viewBox="0 0 395.52 198.0787153904409" height="198.0787153904409" width="395.52"><g><svg viewBox="0 0 401.35316832651756 200.99999999999997" height="198.0787153904409" width="395.52"><g><rect width="18.0362064" height="200.99999999999997" x="144.60616075349705" y="0" fill="#ffffff" opacity="1" stroke-width="0" stroke="transparent" fill-opacity="1" class="rect-uu-0" data-fill-palette-color="primary" rx="1%" id="uu-0" data-palette-color="#ffffff"></rect></g><g transform="matrix(1,0,0,1,209.85756715349706,0.4999999999999858)"><svg viewBox="0 0 191.49560117302053 200" height="200" width="191.49560117302053"><g><svg viewBox="0 0 191.49560117302053 200" height="200" width="191.49560117302053"><g><svg viewBox="0 0 191.49560117302053 200" height="200" width="191.49560117302053"><g transform="matrix(1,0,0,1,0,0)"><svg width="191.49560117302053" viewBox="1.5 -33.95 32.65 34.1" height="200" data-palette-color="#ffffff"><path d="M1.5-33.95L1.5-33.95Q2.45-33.9 4.05-33.85 5.65-33.8 6.9-33.8L6.9-33.8Q8.25-33.8 10.38-33.83 12.5-33.85 14.7-33.88 16.9-33.9 18.35-33.9L18.35-33.9Q23.75-33.9 26.8-33.02 29.85-32.15 31.1-30.43 32.35-28.7 32.35-26.15L32.35-26.15Q32.35-23.25 30.3-21.15 28.25-19.05 24.4-18.5L24.4-18.5Q27.95-18.3 30.1-17.18 32.25-16.05 33.2-14.15 34.15-12.25 34.15-9.7L34.15-9.7Q34.15-6.8 32.6-4.63 31.05-2.45 27.6-1.23 24.15 0 18.35 0L18.35 0Q16.15 0 13.95 0 11.75 0 9.63 0.03 7.5 0.05 5.48 0.08 3.45 0.1 1.5 0.15L1.5 0.15Q1.5-0.95 1.6-2 1.7-3.05 1.9-3.75L1.9-3.75Q3.25-3.85 3.98-4.28 4.7-4.7 4.95-5.88 5.2-7.05 5.2-9.35L5.2-9.35 5.2-24.55Q5.2-26.8 4.95-27.9 4.7-29 3.98-29.43 3.25-29.85 1.85-30.05L1.85-30.05Q1.65-30.8 1.58-31.98 1.5-33.15 1.5-33.95ZM14.5-29.25L15.2-31.9 15.2-8.9Q15.2-6.7 15.68-5.58 16.15-4.45 16.95-4.08 17.75-3.7 18.65-3.7L18.65-3.7Q20.5-3.7 21.83-5.13 23.15-6.55 23.15-9.15L23.15-9.15Q23.15-10.95 22.73-12.15 22.3-13.35 21.45-14.08 20.6-14.8 19.35-15.13 18.1-15.45 16.45-15.45L16.45-15.45 13.2-15.45 13.2-19.2 17-19.2Q18.65-19.2 19.85-19.83 21.05-20.45 21.7-21.7 22.35-22.95 22.35-24.8L22.35-24.8Q22.35-26.45 21.73-27.63 21.1-28.8 20.03-29.43 18.95-30.05 17.55-30.05L17.55-30.05Q16.6-30.05 15.93-29.85 15.25-29.65 14.5-29.25L14.5-29.25Z" opacity="1" transform="matrix(1,0,0,1,0,0)" fill="#ffffff" class="undefined-text-0" data-fill-palette-color="primary" id="text-0"></path></svg></g></svg></g></svg></g></svg></g><g transform="matrix(1,0,0,1,0,0.4999999999999858)"><svg viewBox="0 0 97.39096075349704 200" height="200" width="97.39096075349704"><g><svg xmlns="http://www.w3.org/2000/svg" xmlns:xlink="http://www.w3.org/1999/xlink" version="1.1" x="0" y="0" viewBox="24.299999999999994 2.7402840105459427 41.32425520849053 84.86260919652482" enable-background="new 0 0 90 90" xml:space="preserve" height="200" width="97.39096075349704" class="icon-icon-0" data-fill-palette-color="accent" id="icon-0"><path d="M57.1 81.3c0.7-0.9 1.4-1.8 1.9-2.8C75.1 53 56.7 22.3 57.4 4.8c0-3.4-13.4-2.4-17.6 1.6-4.2 3.9 11.1 24.1 11 40.4 0 3.9-0.5 7.2-1.2 9.9-2.2-0.8-4.6-1.3-7.1-1.3-10.1 0-18.2 7.2-18.2 16.1s8.2 16.1 18.2 16.1C48.5 87.7 53.8 85.2 57.1 81.3 57.1 81.3 57.1 81.3 57.1 81.3 57.1 81.3 57.1 81.3 57.1 81.3z" fill="#ffffff" data-fill-palette-color="accent"></path></svg></g></svg></g></svg></g><defs></defs></svg><rect width="395.52" height="198.0787153904409" fill="none" stroke="none" visibility="hidden"></rect></g></svg></g></svg>