<svg xmlns="http://www.w3.org/2000/svg" version="1.1" xmlns:xlink="http://www.w3.org/1999/xlink" xmlns:svgjs="http://svgjs.dev/svgjs" width="1000" height="1000" viewBox="0 0 1000 1000"><rect width="1000" height="1000" fill="#0080ff"></rect><g transform="matrix(0.7,0,0,0.7,150,106.25)"><svg viewBox="0 0 320 360" data-background-color="#0080ff" preserveAspectRatio="xMidYMid meet" height="1125" width="1000" xmlns="http://www.w3.org/2000/svg" xmlns:xlink="http://www.w3.org/1999/xlink"><g id="tight-bounds" transform="matrix(1,0,0,1,0,0)"><svg viewBox="0 0 320 360" height="360" width="320"><g><svg></svg></g><g><svg viewBox="0 0 320 360" height="360" width="320"><g><path d="M320 187.111c0-45.764-20.238-86.866-52.203-114.908-28.043-31.964-69.145-52.203-114.908-52.203-84.302 0-152.889 68.587-152.889 152.889 0 45.753 20.231 86.848 52.185 114.891 28.043 31.975 69.152 52.22 114.926 52.22 0.299 0 0.59-0.021 0.889-0.021 0.299 0 0.59 0.021 0.889 0.021 83.456 0 151.111-67.655 151.111-151.111 0-0.299-0.021-0.59-0.021-0.889 0-0.299 0.021-0.59 0.021-0.889zM59.833 263.097c-15.093-21.255-24.071-47.143-24.256-75.097 0.48-72.928 59.492-131.943 132.423-132.423 27.954 0.185 53.845 9.163 75.097 24.256 24.366 23.627 39.57 56.64 39.57 93.056 0 71.559-58.219 129.778-129.778 129.778-36.416 0-69.429-15.204-93.056-39.57zM3.556 172.889c0-82.343 66.99-149.333 149.333-149.333 35.051 0 67.292 12.167 92.8 32.462-22.98-13.824-49.863-21.796-78.578-21.796-84.302 0-152.889 68.587-152.889 152.889 0 28.708 7.968 55.584 21.785 78.56-20.288-25.5-32.452-57.739-32.451-92.782zM167.111 318.667c-35.84 0-68.363-14.418-92.107-37.743 21.952 15.89 48.864 25.298 77.885 25.298 73.522 0 133.333-59.812 133.333-133.333 0-29.02-9.408-55.932-25.298-77.885 23.324 23.744 37.742 56.267 37.743 92.107 0 72.54-59.015 131.556-131.556 131.556z" fill="#ffffff" fill-rule="nonzero" stroke="none" stroke-width="1" stroke-linecap="butt" stroke-linejoin="miter" stroke-miterlimit="10" stroke-dasharray="" stroke-dashoffset="0" font-family="none" font-weight="none" font-size="none" text-anchor="none" style="mix-blend-mode: normal" data-fill-palette-color="tertiary"></path></g><g transform="matrix(1,0,0,1,78.40962099125365,99)"><svg viewBox="0 0 163.1807580174927 162" height="162" width="163.1807580174927"><g><svg viewBox="0 0 163.1807580174927 162" height="162" width="163.1807580174927"><g><svg viewBox="0 0 163.1807580174927 162" height="162" width="163.1807580174927"><g><svg viewBox="0 0 163.1807580174927 162" height="162" width="163.1807580174927"><g><svg viewBox="0 0 163.1807580174927 162" height="162" width="163.1807580174927"><g><svg viewBox="0 0 163.1807580174927 162" height="162" width="163.1807580174927"><g transform="matrix(1,0,0,1,0,0)"><svg width="163.1807580174927" viewBox="1.65 -34.3 34.550000000000004 34.3" height="162" data-palette-color="#ffffff"><path d="M29.4-18Q36.2-16 36.2-9.7L36.2-9.7Q36.2-5.1 32.7-2.55 29.2 0 22.55 0L22.55 0 1.65 0 1.65-6.35 7.25-6.35 7.25-27.95 1.65-27.95 1.65-34.3 21.45-34.3Q27.3-34.3 30.38-31.75 33.45-29.2 33.45-25.05L33.45-25.05Q33.45-20.55 29.4-18L29.4-18ZM21-27.95L15.2-27.95 15.2-19.9 19.5-19.9Q22.35-19.9 23.85-20.85 25.35-21.8 25.35-24L25.35-24Q25.35-26.1 24.05-27.03 22.75-27.95 21-27.95L21-27.95ZM22-6.35Q28.1-6.35 28.1-10.35L28.1-10.35Q28.1-12.35 26.75-13.28 25.4-14.2 22.55-14.2L22.55-14.2 15.2-14.2 15.2-6.35 22-6.35Z" opacity="1" transform="matrix(1,0,0,1,0,0)" fill="#ffffff" class="undefined-text-0" data-fill-palette-color="primary" id="text-0"></path></svg></g></svg></g></svg></g></svg></g><g></g></svg></g></svg></g></svg></g></svg></g><defs></defs></svg><rect width="320" height="360" fill="none" stroke="none" visibility="hidden"></rect></g></svg></g></svg>